<mxfile host="app.diagrams.net" modified="2022-05-26T16:36:11.186Z" agent="5.0 (Macintosh; Intel Mac OS X 10_15_7) AppleWebKit/537.36 (KHTML, like Gecko) Chrome/101.0.4951.64 Safari/537.36" etag="Q4FFT6uj1GdfKVWsPKnN" version="18.1.1" type="github">
  <diagram id="C5RBs43oDa-KdzZeNtuy" name="Page-1">
    <mxGraphModel dx="1010" dy="1308" grid="1" gridSize="10" guides="1" tooltips="1" connect="1" arrows="1" fold="1" page="1" pageScale="1" pageWidth="827" pageHeight="1169" math="0" shadow="0">
      <root>
        <mxCell id="WIyWlLk6GJQsqaUBKTNV-0" />
        <mxCell id="WIyWlLk6GJQsqaUBKTNV-1" parent="WIyWlLk6GJQsqaUBKTNV-0" />
        <mxCell id="GMNVH4IvVkyflE9DCt4a-71" style="edgeStyle=orthogonalEdgeStyle;rounded=0;orthogonalLoop=1;jettySize=auto;html=1;entryX=0.5;entryY=0;entryDx=0;entryDy=0;endArrow=none;endFill=0;" parent="WIyWlLk6GJQsqaUBKTNV-1" source="GMNVH4IvVkyflE9DCt4a-15" target="GMNVH4IvVkyflE9DCt4a-59" edge="1">
          <mxGeometry relative="1" as="geometry" />
        </mxCell>
        <mxCell id="GMNVH4IvVkyflE9DCt4a-72" value="owns" style="edgeLabel;html=1;align=center;verticalAlign=middle;resizable=0;points=[];" parent="GMNVH4IvVkyflE9DCt4a-71" vertex="1" connectable="0">
          <mxGeometry x="0.0298" y="-1" relative="1" as="geometry">
            <mxPoint x="15" as="offset" />
          </mxGeometry>
        </mxCell>
        <mxCell id="GMNVH4IvVkyflE9DCt4a-73" value="1" style="edgeLabel;html=1;align=center;verticalAlign=middle;resizable=0;points=[];" parent="GMNVH4IvVkyflE9DCt4a-71" vertex="1" connectable="0">
          <mxGeometry x="-0.875" relative="1" as="geometry">
            <mxPoint x="4" y="2" as="offset" />
          </mxGeometry>
        </mxCell>
        <mxCell id="GMNVH4IvVkyflE9DCt4a-74" value="1" style="edgeLabel;html=1;align=center;verticalAlign=middle;resizable=0;points=[];" parent="GMNVH4IvVkyflE9DCt4a-71" vertex="1" connectable="0">
          <mxGeometry x="0.8512" relative="1" as="geometry">
            <mxPoint x="4" y="-3" as="offset" />
          </mxGeometry>
        </mxCell>
        <mxCell id="GMNVH4IvVkyflE9DCt4a-15" value="Player" style="swimlane;fontStyle=0;childLayout=stackLayout;horizontal=1;startSize=26;fillColor=none;horizontalStack=0;resizeParent=1;resizeParentMax=0;resizeLast=0;collapsible=1;marginBottom=0;" parent="WIyWlLk6GJQsqaUBKTNV-1" vertex="1">
          <mxGeometry x="50" y="214" width="140" height="130" as="geometry" />
        </mxCell>
        <mxCell id="GMNVH4IvVkyflE9DCt4a-94" value="id" style="text;strokeColor=none;fillColor=none;align=left;verticalAlign=top;spacingLeft=4;spacingRight=4;overflow=hidden;rotatable=0;points=[[0,0.5],[1,0.5]];portConstraint=eastwest;" parent="GMNVH4IvVkyflE9DCt4a-15" vertex="1">
          <mxGeometry y="26" width="140" height="26" as="geometry" />
        </mxCell>
        <mxCell id="GMNVH4IvVkyflE9DCt4a-16" value="score" style="text;strokeColor=none;fillColor=none;align=left;verticalAlign=top;spacingLeft=4;spacingRight=4;overflow=hidden;rotatable=0;points=[[0,0.5],[1,0.5]];portConstraint=eastwest;" parent="GMNVH4IvVkyflE9DCt4a-15" vertex="1">
          <mxGeometry y="52" width="140" height="26" as="geometry" />
        </mxCell>
        <mxCell id="GMNVH4IvVkyflE9DCt4a-17" value="penaltyCards" style="text;strokeColor=none;fillColor=none;align=left;verticalAlign=top;spacingLeft=4;spacingRight=4;overflow=hidden;rotatable=0;points=[[0,0.5],[1,0.5]];portConstraint=eastwest;" parent="GMNVH4IvVkyflE9DCt4a-15" vertex="1">
          <mxGeometry y="78" width="140" height="26" as="geometry" />
        </mxCell>
        <mxCell id="GMNVH4IvVkyflE9DCt4a-97" value="isEnded" style="text;strokeColor=none;fillColor=none;align=left;verticalAlign=top;spacingLeft=4;spacingRight=4;overflow=hidden;rotatable=0;points=[[0,0.5],[1,0.5]];portConstraint=eastwest;" parent="GMNVH4IvVkyflE9DCt4a-15" vertex="1">
          <mxGeometry y="104" width="140" height="26" as="geometry" />
        </mxCell>
        <mxCell id="GMNVH4IvVkyflE9DCt4a-79" style="edgeStyle=orthogonalEdgeStyle;rounded=0;orthogonalLoop=1;jettySize=auto;html=1;exitX=0.5;exitY=0;exitDx=0;exitDy=0;endArrow=none;endFill=0;" parent="WIyWlLk6GJQsqaUBKTNV-1" source="GMNVH4IvVkyflE9DCt4a-19" target="GMNVH4IvVkyflE9DCt4a-67" edge="1">
          <mxGeometry relative="1" as="geometry" />
        </mxCell>
        <mxCell id="GMNVH4IvVkyflE9DCt4a-80" value="roll" style="edgeLabel;html=1;align=center;verticalAlign=middle;resizable=0;points=[];" parent="GMNVH4IvVkyflE9DCt4a-79" vertex="1" connectable="0">
          <mxGeometry x="0.0565" y="1" relative="1" as="geometry">
            <mxPoint x="10" y="2" as="offset" />
          </mxGeometry>
        </mxCell>
        <mxCell id="GMNVH4IvVkyflE9DCt4a-81" value="1" style="edgeLabel;html=1;align=center;verticalAlign=middle;resizable=0;points=[];" parent="GMNVH4IvVkyflE9DCt4a-79" vertex="1" connectable="0">
          <mxGeometry x="-0.7796" y="1" relative="1" as="geometry">
            <mxPoint x="6" as="offset" />
          </mxGeometry>
        </mxCell>
        <mxCell id="GMNVH4IvVkyflE9DCt4a-82" value="1" style="edgeLabel;html=1;align=center;verticalAlign=middle;resizable=0;points=[];" parent="GMNVH4IvVkyflE9DCt4a-79" vertex="1" connectable="0">
          <mxGeometry x="0.8464" relative="1" as="geometry">
            <mxPoint x="5" y="2" as="offset" />
          </mxGeometry>
        </mxCell>
        <mxCell id="fl4x9H8fcKus_H-PSyj9-3" style="edgeStyle=orthogonalEdgeStyle;rounded=0;orthogonalLoop=1;jettySize=auto;html=1;endArrow=none;endFill=0;" edge="1" parent="WIyWlLk6GJQsqaUBKTNV-1">
          <mxGeometry relative="1" as="geometry">
            <mxPoint x="369" y="305" as="sourcePoint" />
            <mxPoint x="369" y="370" as="targetPoint" />
          </mxGeometry>
        </mxCell>
        <mxCell id="fl4x9H8fcKus_H-PSyj9-4" value="1" style="edgeLabel;html=1;align=center;verticalAlign=middle;resizable=0;points=[];" vertex="1" connectable="0" parent="fl4x9H8fcKus_H-PSyj9-3">
          <mxGeometry x="-0.7231" y="-4" relative="1" as="geometry">
            <mxPoint x="-3" as="offset" />
          </mxGeometry>
        </mxCell>
        <mxCell id="fl4x9H8fcKus_H-PSyj9-5" value="1" style="edgeLabel;html=1;align=center;verticalAlign=middle;resizable=0;points=[];" vertex="1" connectable="0" parent="fl4x9H8fcKus_H-PSyj9-3">
          <mxGeometry x="0.6923" y="-1" relative="1" as="geometry">
            <mxPoint x="-6" as="offset" />
          </mxGeometry>
        </mxCell>
        <mxCell id="GMNVH4IvVkyflE9DCt4a-19" value="BridgeMonopolyGame" style="swimlane;fontStyle=0;childLayout=stackLayout;horizontal=1;startSize=26;fillColor=none;horizontalStack=0;resizeParent=1;resizeParentMax=0;resizeLast=0;collapsible=1;marginBottom=0;" parent="WIyWlLk6GJQsqaUBKTNV-1" vertex="1">
          <mxGeometry x="300" y="253" width="140" height="52" as="geometry" />
        </mxCell>
        <mxCell id="GMNVH4IvVkyflE9DCt4a-96" value="endCount" style="text;strokeColor=none;fillColor=none;align=left;verticalAlign=top;spacingLeft=4;spacingRight=4;overflow=hidden;rotatable=0;points=[[0,0.5],[1,0.5]];portConstraint=eastwest;" parent="GMNVH4IvVkyflE9DCt4a-19" vertex="1">
          <mxGeometry y="26" width="140" height="26" as="geometry" />
        </mxCell>
        <mxCell id="GMNVH4IvVkyflE9DCt4a-23" style="edgeStyle=orthogonalEdgeStyle;rounded=0;orthogonalLoop=1;jettySize=auto;html=1;endArrow=none;endFill=0;" parent="WIyWlLk6GJQsqaUBKTNV-1" source="GMNVH4IvVkyflE9DCt4a-19" target="GMNVH4IvVkyflE9DCt4a-15" edge="1">
          <mxGeometry relative="1" as="geometry">
            <mxPoint x="300" y="351" as="sourcePoint" />
          </mxGeometry>
        </mxCell>
        <mxCell id="GMNVH4IvVkyflE9DCt4a-40" value="play" style="edgeLabel;html=1;align=center;verticalAlign=middle;resizable=0;points=[];" parent="GMNVH4IvVkyflE9DCt4a-23" vertex="1" connectable="0">
          <mxGeometry x="0.1556" y="-3" relative="1" as="geometry">
            <mxPoint x="13" y="-5" as="offset" />
          </mxGeometry>
        </mxCell>
        <mxCell id="GMNVH4IvVkyflE9DCt4a-41" value="2..4" style="edgeLabel;html=1;align=center;verticalAlign=middle;resizable=0;points=[];" parent="GMNVH4IvVkyflE9DCt4a-23" vertex="1" connectable="0">
          <mxGeometry x="0.9197" relative="1" as="geometry">
            <mxPoint x="8" y="-8" as="offset" />
          </mxGeometry>
        </mxCell>
        <mxCell id="GMNVH4IvVkyflE9DCt4a-42" value="1" style="edgeLabel;html=1;align=center;verticalAlign=middle;resizable=0;points=[];" parent="GMNVH4IvVkyflE9DCt4a-23" vertex="1" connectable="0">
          <mxGeometry x="-0.9157" y="-3" relative="1" as="geometry">
            <mxPoint y="-5" as="offset" />
          </mxGeometry>
        </mxCell>
        <mxCell id="GMNVH4IvVkyflE9DCt4a-51" value="Board" style="swimlane;fontStyle=0;childLayout=stackLayout;horizontal=1;startSize=26;fillColor=none;horizontalStack=0;resizeParent=1;resizeParentMax=0;resizeLast=0;collapsible=1;marginBottom=0;" parent="WIyWlLk6GJQsqaUBKTNV-1" vertex="1">
          <mxGeometry x="551" y="552" width="140" height="52" as="geometry" />
        </mxCell>
        <mxCell id="GMNVH4IvVkyflE9DCt4a-54" value="Â " style="text;strokeColor=none;fillColor=none;align=left;verticalAlign=top;spacingLeft=4;spacingRight=4;overflow=hidden;rotatable=0;points=[[0,0.5],[1,0.5]];portConstraint=eastwest;" parent="GMNVH4IvVkyflE9DCt4a-51" vertex="1">
          <mxGeometry y="26" width="140" height="26" as="geometry" />
        </mxCell>
        <mxCell id="GMNVH4IvVkyflE9DCt4a-75" style="edgeStyle=orthogonalEdgeStyle;rounded=0;orthogonalLoop=1;jettySize=auto;html=1;endArrow=none;endFill=0;" parent="WIyWlLk6GJQsqaUBKTNV-1" source="GMNVH4IvVkyflE9DCt4a-59" target="GMNVH4IvVkyflE9DCt4a-63" edge="1">
          <mxGeometry relative="1" as="geometry" />
        </mxCell>
        <mxCell id="GMNVH4IvVkyflE9DCt4a-76" value="is on" style="edgeLabel;html=1;align=center;verticalAlign=middle;resizable=0;points=[];" parent="GMNVH4IvVkyflE9DCt4a-75" vertex="1" connectable="0">
          <mxGeometry x="0.0528" y="1" relative="1" as="geometry">
            <mxPoint y="-8" as="offset" />
          </mxGeometry>
        </mxCell>
        <mxCell id="GMNVH4IvVkyflE9DCt4a-77" value="0..4" style="edgeLabel;html=1;align=center;verticalAlign=middle;resizable=0;points=[];" parent="GMNVH4IvVkyflE9DCt4a-75" vertex="1" connectable="0">
          <mxGeometry x="-0.8831" y="3" relative="1" as="geometry">
            <mxPoint x="5" y="-6" as="offset" />
          </mxGeometry>
        </mxCell>
        <mxCell id="GMNVH4IvVkyflE9DCt4a-78" value="1" style="edgeLabel;html=1;align=center;verticalAlign=middle;resizable=0;points=[];" parent="GMNVH4IvVkyflE9DCt4a-75" vertex="1" connectable="0">
          <mxGeometry x="0.8523" y="2" relative="1" as="geometry">
            <mxPoint x="1" y="-6" as="offset" />
          </mxGeometry>
        </mxCell>
        <mxCell id="GMNVH4IvVkyflE9DCt4a-59" value="Piece" style="swimlane;fontStyle=0;childLayout=stackLayout;horizontal=1;startSize=26;fillColor=none;horizontalStack=0;resizeParent=1;resizeParentMax=0;resizeLast=0;collapsible=1;marginBottom=0;" parent="WIyWlLk6GJQsqaUBKTNV-1" vertex="1">
          <mxGeometry x="50" y="552" width="140" height="52" as="geometry" />
        </mxCell>
        <mxCell id="GMNVH4IvVkyflE9DCt4a-83" style="edgeStyle=orthogonalEdgeStyle;rounded=0;orthogonalLoop=1;jettySize=auto;html=1;endArrow=none;endFill=0;" parent="WIyWlLk6GJQsqaUBKTNV-1" source="GMNVH4IvVkyflE9DCt4a-63" target="GMNVH4IvVkyflE9DCt4a-51" edge="1">
          <mxGeometry relative="1" as="geometry" />
        </mxCell>
        <mxCell id="GMNVH4IvVkyflE9DCt4a-84" value="contains" style="edgeLabel;html=1;align=center;verticalAlign=middle;resizable=0;points=[];" parent="GMNVH4IvVkyflE9DCt4a-83" vertex="1" connectable="0">
          <mxGeometry x="-0.1037" relative="1" as="geometry">
            <mxPoint x="7" y="-9" as="offset" />
          </mxGeometry>
        </mxCell>
        <mxCell id="GMNVH4IvVkyflE9DCt4a-85" value="2..*" style="edgeLabel;html=1;align=center;verticalAlign=middle;resizable=0;points=[];" parent="GMNVH4IvVkyflE9DCt4a-83" vertex="1" connectable="0">
          <mxGeometry x="-0.8686" relative="1" as="geometry">
            <mxPoint x="5" y="-8" as="offset" />
          </mxGeometry>
        </mxCell>
        <mxCell id="GMNVH4IvVkyflE9DCt4a-86" value="1" style="edgeLabel;html=1;align=center;verticalAlign=middle;resizable=0;points=[];" parent="GMNVH4IvVkyflE9DCt4a-83" vertex="1" connectable="0">
          <mxGeometry x="0.7882" relative="1" as="geometry">
            <mxPoint x="4" y="-8" as="offset" />
          </mxGeometry>
        </mxCell>
        <mxCell id="GMNVH4IvVkyflE9DCt4a-63" value="Cell" style="swimlane;fontStyle=0;childLayout=stackLayout;horizontal=1;startSize=26;fillColor=none;horizontalStack=0;resizeParent=1;resizeParentMax=0;resizeLast=0;collapsible=1;marginBottom=0;" parent="WIyWlLk6GJQsqaUBKTNV-1" vertex="1">
          <mxGeometry x="300" y="500" width="140" height="156" as="geometry" />
        </mxCell>
        <mxCell id="GMNVH4IvVkyflE9DCt4a-64" value="up" style="text;strokeColor=none;fillColor=none;align=left;verticalAlign=top;spacingLeft=4;spacingRight=4;overflow=hidden;rotatable=0;points=[[0,0.5],[1,0.5]];portConstraint=eastwest;" parent="GMNVH4IvVkyflE9DCt4a-63" vertex="1">
          <mxGeometry y="26" width="140" height="26" as="geometry" />
        </mxCell>
        <mxCell id="GMNVH4IvVkyflE9DCt4a-65" value="down" style="text;strokeColor=none;fillColor=none;align=left;verticalAlign=top;spacingLeft=4;spacingRight=4;overflow=hidden;rotatable=0;points=[[0,0.5],[1,0.5]];portConstraint=eastwest;" parent="GMNVH4IvVkyflE9DCt4a-63" vertex="1">
          <mxGeometry y="52" width="140" height="26" as="geometry" />
        </mxCell>
        <mxCell id="GMNVH4IvVkyflE9DCt4a-66" value="left" style="text;strokeColor=none;fillColor=none;align=left;verticalAlign=top;spacingLeft=4;spacingRight=4;overflow=hidden;rotatable=0;points=[[0,0.5],[1,0.5]];portConstraint=eastwest;" parent="GMNVH4IvVkyflE9DCt4a-63" vertex="1">
          <mxGeometry y="78" width="140" height="26" as="geometry" />
        </mxCell>
        <mxCell id="GMNVH4IvVkyflE9DCt4a-93" value="right" style="text;strokeColor=none;fillColor=none;align=left;verticalAlign=top;spacingLeft=4;spacingRight=4;overflow=hidden;rotatable=0;points=[[0,0.5],[1,0.5]];portConstraint=eastwest;" parent="GMNVH4IvVkyflE9DCt4a-63" vertex="1">
          <mxGeometry y="104" width="140" height="26" as="geometry" />
        </mxCell>
        <mxCell id="GMNVH4IvVkyflE9DCt4a-95" value="item" style="text;strokeColor=none;fillColor=none;align=left;verticalAlign=top;spacingLeft=4;spacingRight=4;overflow=hidden;rotatable=0;points=[[0,0.5],[1,0.5]];portConstraint=eastwest;" parent="GMNVH4IvVkyflE9DCt4a-63" vertex="1">
          <mxGeometry y="130" width="140" height="26" as="geometry" />
        </mxCell>
        <mxCell id="GMNVH4IvVkyflE9DCt4a-67" value="Dice" style="swimlane;fontStyle=0;childLayout=stackLayout;horizontal=1;startSize=26;fillColor=none;horizontalStack=0;resizeParent=1;resizeParentMax=0;resizeLast=0;collapsible=1;marginBottom=0;" parent="WIyWlLk6GJQsqaUBKTNV-1" vertex="1">
          <mxGeometry x="300" y="120" width="140" height="52" as="geometry" />
        </mxCell>
        <mxCell id="GMNVH4IvVkyflE9DCt4a-69" value="Â " style="text;strokeColor=none;fillColor=none;align=left;verticalAlign=top;spacingLeft=4;spacingRight=4;overflow=hidden;rotatable=0;points=[[0,0.5],[1,0.5]];portConstraint=eastwest;" parent="GMNVH4IvVkyflE9DCt4a-67" vertex="1">
          <mxGeometry y="26" width="140" height="26" as="geometry" />
        </mxCell>
        <mxCell id="GMNVH4IvVkyflE9DCt4a-87" style="edgeStyle=orthogonalEdgeStyle;rounded=0;orthogonalLoop=1;jettySize=auto;html=1;entryX=0.5;entryY=0;entryDx=0;entryDy=0;endArrow=none;endFill=0;" parent="WIyWlLk6GJQsqaUBKTNV-1" source="GMNVH4IvVkyflE9DCt4a-19" target="GMNVH4IvVkyflE9DCt4a-51" edge="1">
          <mxGeometry y="52" relative="1" as="geometry">
            <mxPoint x="440" y="351" as="sourcePoint" />
          </mxGeometry>
        </mxCell>
        <mxCell id="GMNVH4IvVkyflE9DCt4a-88" value="play on" style="edgeLabel;html=1;align=center;verticalAlign=middle;resizable=0;points=[];" parent="GMNVH4IvVkyflE9DCt4a-87" vertex="1" connectable="0">
          <mxGeometry x="0.028" y="1" relative="1" as="geometry">
            <mxPoint y="-8" as="offset" />
          </mxGeometry>
        </mxCell>
        <mxCell id="GMNVH4IvVkyflE9DCt4a-89" value="1" style="edgeLabel;html=1;align=center;verticalAlign=middle;resizable=0;points=[];" parent="GMNVH4IvVkyflE9DCt4a-87" vertex="1" connectable="0">
          <mxGeometry x="-0.9069" relative="1" as="geometry">
            <mxPoint x="-6" y="-9" as="offset" />
          </mxGeometry>
        </mxCell>
        <mxCell id="GMNVH4IvVkyflE9DCt4a-90" value="1" style="edgeLabel;html=1;align=center;verticalAlign=middle;resizable=0;points=[];" parent="GMNVH4IvVkyflE9DCt4a-87" vertex="1" connectable="0">
          <mxGeometry x="0.8875" y="-2" relative="1" as="geometry">
            <mxPoint x="6" y="6" as="offset" />
          </mxGeometry>
        </mxCell>
        <mxCell id="fl4x9H8fcKus_H-PSyj9-0" value="Turn" style="swimlane;fontStyle=0;childLayout=stackLayout;horizontal=1;startSize=26;fillColor=none;horizontalStack=0;resizeParent=1;resizeParentMax=0;resizeLast=0;collapsible=1;marginBottom=0;" vertex="1" parent="WIyWlLk6GJQsqaUBKTNV-1">
          <mxGeometry x="300" y="370" width="140" height="52" as="geometry" />
        </mxCell>
        <mxCell id="fl4x9H8fcKus_H-PSyj9-1" value="player" style="text;strokeColor=none;fillColor=none;align=left;verticalAlign=top;spacingLeft=4;spacingRight=4;overflow=hidden;rotatable=0;points=[[0,0.5],[1,0.5]];portConstraint=eastwest;" vertex="1" parent="fl4x9H8fcKus_H-PSyj9-0">
          <mxGeometry y="26" width="140" height="26" as="geometry" />
        </mxCell>
      </root>
    </mxGraphModel>
  </diagram>
</mxfile>
